<?xml version="1.0" encoding="UTF-8"?>
<!DOCTYPE svg PUBLIC "-//W3C//DTD SVG 1.1//EN" "http://www.w3.org/Graphics/SVG/1.1/DTD/svg11.dtd">
<!-- Creator: CorelDRAW 2021.5 -->
<svg xmlns="http://www.w3.org/2000/svg" xml:space="preserve" width="646px" height="317px" version="1.1" style="shape-rendering:geometricPrecision; text-rendering:geometricPrecision; image-rendering:optimizeQuality; fill-rule:evenodd; clip-rule:evenodd"
viewBox="0 0 75.4 37.03"
 xmlns:xlink="http://www.w3.org/1999/xlink"
 xmlns:xodm="http://www.corel.com/coreldraw/odm/2003">
 <defs>
  <style type="text/css">
   <![CDATA[
    .fil0 {fill:#FEFEFE}
    .fil2 {fill:#727271;fill-rule:nonzero}
    .fil1 {fill:#302861;fill-rule:nonzero}
   ]]>
  </style>
 </defs>
 <g id="Слой_x0020_1">
  <metadata id="CorelCorpID_0Corel-Layer"/>
  <rect class="fil0" width="75.07" height="37.03"/>
  <g id="_1997053558128">
   <path class="fil1" d="M66.4 7.25c-6.11,-2.04 -13.93,-0.26 -14.22,7.43l3.61 0c0.31,-5.82 6.17,-6.38 10.42,-4.43l0.19 -3zm-16.11 16.3l3.84 0 -2.28 -5.75 11.67 0 0 2.76c-2.46,0.93 -5.72,0.16 -7.03,-2.29l-3.86 0c2.03,6.36 9.07,5.98 14.3,4.55l0 -7.67 -16.13 0 -3.35 -8.43 -4.32 0 -3.16 7.96 3.67 0 1.65 -4.36 1.83 4.83 -10.29 0 -3.35 -8.43 -4.32 0 -3.16 7.96 3.68 0 1.64 -4.36 1.83 4.83 -10.29 0 -3.35 -8.43 -4.32 0 -3.16 7.96 3.68 0 1.64 -4.36 1.83 4.83 -10.03 0 -1.05 2.65 12.08 0 2.17 5.75 3.98 0 1.99 -5.28 -3.68 0 0.13 -0.47 9.38 0 2.17 5.75 3.97 0 2 -5.28 -3.75 0 -0.23 0.6 -0.43 -1.07 10.24 0 2.17 5.75zm-25.53 -5.75l-0.42 1.07 -0.43 -1.07 0.85 0zm-14.16 0.47l-2.09 5.28 3.85 0 1.99 -5.28 -3.75 0z"/>
   <path class="fil2" d="M0.87 0l74.53 0 0 37.03 -0.33 0 -74.09 0 -0.98 0 0 -37.03 0.87 0zm0.87 27.41l71.92 0 0 -25.67 -71.92 0 0 25.67zm5.61 2.56l-1.38 3.46 0.75 0 0.3 -0.78 1.43 0 0.29 0.78 0.79 0 -1.38 -3.46 -0.8 0zm-0.11 2.11l0.48 -1.42 0.01 0 0.51 1.42 -1 0zm2.69 -2.36l0 3.71 0.67 0 0 -3.71 -0.67 0zm1.47 1.81c0.34,-0.2 0.6,-0.23 0.82,-0.23 0.31,0 0.58,0.16 0.58,0.44l0 0.11 -0.06 0c-0.12,0 -0.25,-0.01 -0.37,-0.01 -1.09,0 -1.28,0.5 -1.28,0.85 0,0.4 0.27,0.78 0.92,0.78 0.55,0 0.74,-0.31 0.8,-0.41l0.01 0 0 0.37 0.66 0 0 -1.62c0,-0.38 -0.1,-0.98 -1.14,-0.98 -0.34,0 -0.63,0.04 -0.94,0.17l0 0.53zm1.4 0.74l0 0.06c0,0.56 -0.33,0.69 -0.61,0.69 -0.3,0 -0.41,-0.15 -0.41,-0.34 0,-0.41 0.54,-0.41 0.91,-0.41l0.11 0zm1.55 -0.91l0 1.32c0,0.17 0.01,0.79 0.75,0.79 0.24,0 0.48,-0.05 0.52,-0.06l0 -0.48c-0.08,0.03 -0.17,0.05 -0.26,0.05 -0.34,0 -0.34,-0.23 -0.34,-0.45l0 -1.17 0.6 0 0 -0.49 -0.6 0 0 -0.73 -0.67 0.22 0 0.51 -0.5 0 0 0.49 0.5 0zm1.89 0.17c0.34,-0.2 0.6,-0.23 0.82,-0.23 0.31,0 0.58,0.16 0.58,0.44l0 0.11 -0.06 0c-0.12,0 -0.25,-0.01 -0.38,-0.01 -1.09,0 -1.27,0.5 -1.27,0.85 0,0.4 0.26,0.78 0.91,0.78 0.56,0 0.75,-0.31 0.8,-0.41l0.01 0 0 0.37 0.66 0 0 -1.62c0,-0.38 -0.09,-0.98 -1.13,-0.98 -0.35,0 -0.64,0.04 -0.94,0.17l0 0.53zm1.4 0.74l0 0.06c0,0.56 -0.34,0.69 -0.62,0.69 -0.29,0 -0.41,-0.15 -0.41,-0.34 0,-0.41 0.54,-0.41 0.91,-0.41l0.12 0zm3.03 -1.4l0 1.35c0,0.35 -0.21,0.7 -0.61,0.7 -0.41,0 -0.43,-0.33 -0.43,-0.5l0 -1.55 -0.67 0 0 1.66c0,0.88 0.6,0.94 0.91,0.94 0.19,0 0.56,-0.06 0.81,-0.44l0.01 0 0 0.4 0.65 0 0 -2.56 -0.67 0zm3.6 -0.9l-1.38 3.46 0.75 0 0.3 -0.78 1.43 0 0.29 0.78 0.79 0 -1.38 -3.46 -0.8 0zm-0.11 2.11l0.48 -1.42 0.01 0 0.51 1.42 -1 0zm4.38 -2.36l0 1.07 0.01 0.42 -0.01 0c-0.13,-0.2 -0.36,-0.38 -0.73,-0.38 -0.52,0 -1.11,0.38 -1.11,1.32 0,0.81 0.42,1.32 1.08,1.32 0.49,0 0.72,-0.27 0.83,-0.48l0.01 0 0 0.44 0.59 0 0 -3.71 -0.67 0zm0 2.43c0,0.54 -0.3,0.79 -0.57,0.79 -0.27,0 -0.57,-0.25 -0.57,-0.79 0,-0.54 0.3,-0.79 0.57,-0.79 0.27,0 0.57,0.25 0.57,0.79l0 0zm1.03 -1.28l0.96 2.56 0.79 0 0.95 -2.56 -0.69 0 -0.52 1.58 -0.09 0.38 -0.02 0 -0.1 -0.38 -0.54 -1.58 -0.74 0zm3.23 0.66c0.34,-0.2 0.6,-0.23 0.82,-0.23 0.31,0 0.58,0.16 0.58,0.44l0 0.11 -0.06 0c-0.13,0 -0.25,-0.01 -0.38,-0.01 -1.09,0 -1.27,0.5 -1.27,0.85 0,0.4 0.26,0.78 0.91,0.78 0.56,0 0.75,-0.31 0.8,-0.41l0.01 0 0 0.37 0.66 0 0 -1.62c0,-0.38 -0.09,-0.98 -1.13,-0.98 -0.35,0 -0.64,0.04 -0.94,0.17l0 0.53zm1.4 0.74l0 0.06c0,0.56 -0.34,0.69 -0.62,0.69 -0.29,0 -0.41,-0.15 -0.41,-0.34 0,-0.41 0.54,-0.41 0.91,-0.41l0.12 0zm1.99 1.16l0 -1.38c0,-0.28 0.19,-0.67 0.6,-0.67 0.32,0 0.44,0.25 0.44,0.5l0 1.55 0.67 0 0 -1.8c0,-0.51 -0.38,-0.8 -0.91,-0.8 -0.2,0 -0.56,0.06 -0.81,0.44l-0.02 0 0 -0.4 -0.65 0 0 2.56 0.68 0zm4.16 -2.53c-0.19,-0.05 -0.4,-0.07 -0.57,-0.07 -0.91,0 -1.38,0.61 -1.38,1.3 0,0.67 0.42,1.34 1.33,1.34 0.29,0 0.54,-0.06 0.66,-0.1l-0.02 -0.49c-0.18,0.08 -0.37,0.11 -0.52,0.11 -0.47,0 -0.75,-0.36 -0.75,-0.83 0,-0.52 0.35,-0.85 0.8,-0.85 0.15,0 0.29,0.02 0.41,0.07l0.04 -0.48zm2.79 1.45l0 -0.15c0,-0.23 -0.02,-1.37 -1.18,-1.37 -0.69,0 -1.27,0.49 -1.27,1.32 0,0.91 0.61,1.32 1.38,1.32 0.31,0 0.62,-0.06 0.89,-0.16l0 -0.5c-0.25,0.11 -0.51,0.18 -0.81,0.18 -0.5,0 -0.74,-0.31 -0.76,-0.64l1.75 0zm-1.75 -0.46c0.01,-0.33 0.23,-0.6 0.53,-0.6 0.24,0 0.54,0.17 0.53,0.6l-1.06 0zm4.53 -1.92l-1.38 3.46 0.75 0 0.29 -0.78 1.43 0 0.3 0.78 0.79 0 -1.38 -3.46 -0.8 0zm-0.11 2.11l0.48 -1.42 0.01 0 0.51 1.42 -1 0zm2.69 -1.21l0 2.56 0.68 0 0 -2.56 -0.68 0zm0.69 -1.08l-0.7 0 0 0.7 0.7 0 0 -0.7zm0.64 1.08l0 2.56 0.67 0 0 -1.23c0,-0.72 0.39,-0.87 0.63,-0.87 0.07,0 0.17,0.01 0.22,0.02l0.02 -0.49c-0.07,-0.02 -0.16,-0.03 -0.22,-0.03 -0.4,0 -0.63,0.28 -0.69,0.59l-0.01 0 0 -0.55 -0.62 0zm5.95 -0.79c-0.36,-0.12 -0.66,-0.15 -1.02,-0.15 -1.16,0 -1.91,0.63 -1.91,1.77 0,1.13 0.73,1.77 1.82,1.77 0.53,0 1.05,-0.14 1.22,-0.19l0 -1.83 -1.42 0 0 0.54 0.71 0 0 0.83c-0.16,0.06 -0.29,0.07 -0.46,0.07 -0.69,0 -1.13,-0.45 -1.13,-1.19 0,-0.75 0.45,-1.21 1.16,-1.21 0.28,0 0.63,0.04 0.99,0.2l0.04 -0.61zm0.77 0.79l0 2.56 0.68 0 0 -1.23c0,-0.72 0.38,-0.87 0.62,-0.87 0.07,0 0.17,0.01 0.22,0.02l0.02 -0.49c-0.07,-0.02 -0.15,-0.03 -0.22,-0.03 -0.4,0 -0.63,0.28 -0.69,0.59l-0.01 0 0 -0.55 -0.62 0zm1.82 1.28c0,0.86 0.56,1.32 1.32,1.32 0.76,0 1.32,-0.46 1.32,-1.32 0,-0.86 -0.56,-1.32 -1.32,-1.32 -0.76,0 -1.32,0.46 -1.32,1.32zm0.7 0c0,-0.59 0.32,-0.84 0.62,-0.84 0.29,0 0.62,0.25 0.62,0.84 0,0.59 -0.33,0.84 -0.62,0.84 -0.3,0 -0.62,-0.25 -0.62,-0.84zm4.15 -1.28l0 1.35c0,0.35 -0.22,0.7 -0.61,0.7 -0.41,0 -0.43,-0.33 -0.43,-0.5l0 -1.55 -0.68 0 0 1.66c0,0.88 0.61,0.94 0.92,0.94 0.19,0 0.56,-0.06 0.81,-0.44l0.01 0 0 0.4 0.65 0 0 -2.56 -0.67 0zm1.99 3.62l0 -0.98 -0.02 -0.42 0.01 0c0.14,0.21 0.37,0.38 0.74,0.38 0.56,0 1.11,-0.37 1.11,-1.32 0,-0.95 -0.5,-1.32 -1.08,-1.32 -0.11,0 -0.57,0.02 -0.84,0.48l-0.01 0 0 -0.44 -0.59 0 0 3.62 0.68 0zm0 -2.34c0,-0.54 0.29,-0.79 0.57,-0.79 0.27,0 0.57,0.25 0.57,0.79 0,0.54 -0.3,0.79 -0.57,0.79 -0.28,0 -0.57,-0.25 -0.57,-0.79l0 0z"/>
  </g>
 </g>
</svg>
